<?xml version="1.0" encoding="UTF-8" standalone="no"?>
<!DOCTYPE svg PUBLIC "-//W3C//DTD SVG 1.1//EN" "http://www.w3.org/Graphics/SVG/1.1/DTD/svg11.dtd">
<svg xmlns="http://www.w3.org/2000/svg" version="1.1" viewBox="0.00 0.00 1179.00 1179.00">
<g stroke-width="2.00" fill="none" stroke-linecap="butt">
<path stroke="#797874" vector-effect="non-scaling-stroke" d="
  M 279.92 583.14
  L 285.55 582.84
  Q 287.35 582.75 287.38 580.95
  L 287.57 569.31
  A 0.53 0.52 1.7 0 0 287.06 568.78
  L 280.92 568.60
  Q 279.02 568.55 279.26 566.66
  L 279.91 561.62
  Q 279.97 561.11 279.54 560.84
  Q 277.43 559.52 275.50 559.58
  Q 268.12 559.80 260.75 559.67
  Q 259.52 559.65 258.93 558.90
  A 0.84 0.84 0.0 0 1 259.22 557.62
  C 261.91 556.34 264.85 554.99 266.92 552.96
  C 273.72 546.26 274.63 534.58 268.53 527.14
  C 256.63 512.65 232.18 522.60 234.79 541.50
  Q 236.41 553.26 247.15 556.89
  A 1.44 1.44 0.0 0 1 246.69 559.70
  L 228.35 559.76
  A 1.07 1.07 0.0 0 0 227.28 560.93
  L 227.87 567.65
  Q 227.95 568.51 227.08 568.52
  L 220.87 568.52
  A 1.01 1.01 0.0 0 0 219.86 569.50
  L 219.55 581.91
  A 0.57 0.56 -86.7 0 0 220.06 582.49
  L 226.52 583.16
  A 0.82 0.81 6.1 0 1 227.24 584.05
  Q 222.81 626.06 217.92 668.25
  Q 217.28 673.79 219.51 678.52
  Q 219.75 679.03 220.29 679.18
  Q 223.24 680.00 225.09 682.48
  Q 225.37 682.86 225.15 683.28
  Q 219.57 693.97 214.46 704.89
  C 213.08 707.86 212.72 710.57 214.74 713.09
  C 216.68 715.49 219.32 715.25 222.25 715.25
  Q 254.86 715.31 287.47 715.24
  Q 289.31 715.24 291.44 714.01
  C 294.65 712.16 294.38 708.40 292.99 705.51
  Q 287.90 694.87 282.84 684.22
  C 281.48 681.37 285.51 679.80 287.35 678.65
  Q 287.79 678.37 287.99 677.90
  Q 289.84 673.49 289.22 668.24
  Q 285.37 635.33 280.32 586.15
  Q 280.27 585.64 280.07 585.18
  L 279.48 583.85
  A 0.51 0.50 -13.5 0 1 279.92 583.14"/>
<path stroke="#797874" vector-effect="non-scaling-stroke" d="
  M 568.88 628.65
  L 619.86 708.07
  A 3.71 3.71 0.0 0 0 622.96 709.77
  L 649.32 709.88
  A 1.70 1.70 0.0 0 0 651.03 708.18
  L 651.03 604.46
  Q 651.03 603.96 651.54 603.96
  L 678.06 604.04
  A 0.77 0.77 0.0 0 1 678.83 604.81
  L 678.88 709.06
  Q 678.88 709.71 679.54 709.73
  Q 692.93 710.04 706.40 709.71
  Q 707.85 709.68 708.55 709.21
  Q 709.77 708.41 709.51 706.90
  Q 709.03 704.08 709.03 704.02
  Q 708.92 654.25 709.15 604.76
  A 0.83 0.82 -89.3 0 1 709.98 603.94
  L 735.09 604.05
  A 0.92 0.91 -90.0 0 1 736.00 604.97
  L 735.93 709.02
  A 0.86 0.85 89.7 0 0 736.79 709.88
  Q 773.01 709.74 808.73 709.87
  Q 810.50 709.88 811.74 709.26
  Q 812.23 709.03 812.03 708.52
  Q 811.60 707.47 811.59 706.75
  Q 811.49 696.47 811.36 684.43
  Q 811.35 683.29 810.21 683.30
  L 767.40 683.44
  A 1.43 1.42 -0.0 0 1 765.97 682.02
  L 765.96 658.26
  A 1.69 1.69 0.0 0 1 767.66 656.57
  L 808.84 656.72
  A 0.79 0.78 0.0 0 0 809.63 655.94
  L 809.64 631.66
  A 1.48 1.47 0.0 0 0 808.16 630.19
  L 767.00 630.31
  A 1.26 0.97 90.0 0 1 766.03 629.05
  L 765.94 604.52
  Q 765.94 603.98 766.48 603.98
  L 810.44 604.06
  A 1.01 1.01 0.0 0 0 811.45 603.06
  L 811.65 579.12
  A 1.52 1.52 0.0 0 0 810.13 577.59
  L 621.77 577.57
  A 0.92 0.91 0.0 0 0 620.85 578.48
  L 620.86 658.51
  A 0.65 0.65 0.0 0 1 619.65 658.83
  C 618.89 657.46 618.29 655.96 617.45 654.65
  Q 593.36 617.40 569.67 579.89
  Q 568.27 577.67 565.76 577.64
  Q 552.04 577.48 538.79 577.55
  Q 537.79 577.55 537.79 578.55
  Q 537.69 628.25 537.83 677.75
  Q 537.84 681.10 537.44 684.42
  A 0.37 0.37 0.0 0 1 536.73 684.50
  C 535.96 682.35 535.39 679.93 534.60 677.93
  Q 522.91 648.55 510.83 619.32
  Q 502.70 599.66 495.09 579.80
  Q 494.20 577.49 492.26 577.49
  Q 480.75 577.49 469.25 577.51
  Q 467.34 577.51 465.94 578.19
  A 1.27 1.26 86.6 0 0 465.30 578.92
  C 464.73 580.65 464.31 582.43 463.65 584.06
  Q 442.85 635.59 420.88 690.12
  Q 420.35 691.44 419.41 690.37
  L 375.48 640.76
  A 0.97 0.95 44.5 0 1 375.46 639.50
  Q 399.83 611.04 424.43 582.40
  Q 426.09 580.46 427.99 579.19
  A 0.58 0.58 0.0 0 0 427.78 578.15
  C 425.71 577.71 423.82 577.25 421.71 577.30
  Q 408.75 577.63 395.79 577.47
  C 393.20 577.44 390.97 578.30 389.41 580.17
  Q 369.59 603.84 349.72 627.47
  Q 348.35 629.10 347.51 630.60
  A 0.72 0.72 0.0 0 1 346.16 630.25
  L 346.35 578.78
  A 1.32 1.32 0.0 0 0 345.03 577.46
  L 317.48 577.53
  A 1.37 1.36 -90.0 0 0 316.12 578.90
  L 316.20 708.42
  A 1.45 1.45 0.0 0 0 317.66 709.87
  L 344.75 709.78
  A 1.55 1.55 0.0 0 0 346.29 708.23
  Q 346.23 682.95 346.38 657.25
  Q 346.38 655.99 346.89 655.40
  A 0.73 0.73 0.0 0 1 347.99 655.40
  Q 370.02 681.09 392.31 706.53
  C 393.96 708.41 395.90 709.70 398.25 709.74
  Q 421.34 710.06 444.08 709.69
  A 2.11 2.11 0.0 0 0 446.04 708.28
  L 454.19 685.12
  A 2.80 2.78 -80.1 0 1 456.83 683.25
  L 504.02 683.36
  A 2.21 2.21 0.0 0 1 506.11 684.89
  C 508.57 692.50 512.40 700.14 514.04 708.13
  A 1.01 0.98 -83.8 0 0 514.60 708.85
  Q 516.54 709.76 518.50 709.78
  Q 535.03 709.90 565.48 709.77
  Q 565.95 709.76 566.37 709.99
  Q 566.74 710.19 567.06 710.08
  Q 567.47 709.93 567.64 709.27
  Q 567.89 708.31 567.89 707.81
  Q 568.00 668.76 567.83 628.96
  Q 567.83 627.00 568.88 628.65"/>
<path stroke="#797874" vector-effect="non-scaling-stroke" d="
  M 843.78 660.25
  Q 843.77 657.32 845.55 659.65
  Q 863.59 683.18 881.73 706.41
  C 882.73 707.69 884.36 709.80 885.74 709.81
  Q 907.80 709.85 929.80 709.79
  A 1.93 1.92 -80.0 0 0 931.61 708.51
  L 940.51 683.79
  A 0.78 0.78 0.0 0 1 941.24 683.28
  L 990.00 683.33
  A 2.19 2.19 0.0 0 1 992.07 684.80
  L 1000.52 709.37
  Q 1000.63 709.69 1000.98 709.70
  Q 1012.79 709.88 1024.62 709.78
  C 1027.58 709.76 1030.20 710.83 1033.34 708.72
  Q 1033.82 708.40 1033.31 708.14
  L 1032.88 707.93
  A 1.36 1.33 2.7 0 1 1032.22 707.22
  L 980.19 578.08
  Q 980.02 577.64 979.54 577.63
  L 952.34 577.55
  A 0.98 0.97 -73.4 0 0 951.52 578.00
  C 950.51 579.53 950.20 582.02 949.73 583.17
  Q 928.22 636.60 906.65 690.05
  Q 906.45 690.56 906.10 690.14
  L 877.57 655.76
  Q 877.17 655.27 877.69 654.92
  C 880.92 652.74 885.20 651.42 887.81 649.63
  C 896.62 643.55 901.24 635.36 903.14 624.83
  C 907.32 601.65 895.76 583.95 873.33 578.95
  Q 867.47 577.65 862.75 577.65
  Q 838.80 577.67 814.98 577.52
  A 1.16 1.16 0.0 0 0 813.81 578.68
  Q 813.62 642.71 813.76 707.25
  Q 813.76 708.07 813.60 708.24
  A 1.05 0.93 18.9 0 0 814.50 709.82
  L 841.48 709.77
  A 2.49 2.49 0.0 0 0 843.96 707.27
  L 843.78 660.25"/>
<path stroke="#797874" vector-effect="non-scaling-stroke" d="
  M 263.62 539.14
  A 10.03 10.03 0.0 0 0 253.59 529.11
  A 10.03 10.03 0.0 0 0 243.56 539.14
  A 10.03 10.03 0.0 0 0 253.59 549.17
  A 10.03 10.03 0.0 0 0 263.62 539.14"/>
</g>
<path fill="transparent" d="
  M 0.00 0.00
  L 1179.00 0.00
  L 1179.00 1179.00
  L 0.00 1179.00
  L 0.00 0.00
  Z
  M 279.92 583.14
  L 285.55 582.84
  Q 287.35 582.75 287.38 580.95
  L 287.57 569.31
  A 0.53 0.52 1.7 0 0 287.06 568.78
  L 280.92 568.60
  Q 279.02 568.55 279.26 566.66
  L 279.91 561.62
  Q 279.97 561.11 279.54 560.84
  Q 277.43 559.52 275.50 559.58
  Q 268.12 559.80 260.75 559.67
  Q 259.52 559.65 258.93 558.90
  A 0.84 0.84 0.0 0 1 259.22 557.62
  C 261.91 556.34 264.85 554.99 266.92 552.96
  C 273.72 546.26 274.63 534.58 268.53 527.14
  C 256.63 512.65 232.18 522.60 234.79 541.50
  Q 236.41 553.26 247.15 556.89
  A 1.44 1.44 0.0 0 1 246.69 559.70
  L 228.35 559.76
  A 1.07 1.07 0.0 0 0 227.28 560.93
  L 227.87 567.65
  Q 227.95 568.51 227.08 568.52
  L 220.87 568.52
  A 1.01 1.01 0.0 0 0 219.86 569.50
  L 219.55 581.91
  A 0.57 0.56 -86.7 0 0 220.06 582.49
  L 226.52 583.16
  A 0.82 0.81 6.1 0 1 227.24 584.05
  Q 222.81 626.06 217.92 668.25
  Q 217.28 673.79 219.51 678.52
  Q 219.75 679.03 220.29 679.18
  Q 223.24 680.00 225.09 682.48
  Q 225.37 682.86 225.15 683.28
  Q 219.57 693.97 214.46 704.89
  C 213.08 707.86 212.72 710.57 214.74 713.09
  C 216.68 715.49 219.32 715.25 222.25 715.25
  Q 254.86 715.31 287.47 715.24
  Q 289.31 715.24 291.44 714.01
  C 294.65 712.16 294.38 708.40 292.99 705.51
  Q 287.90 694.87 282.84 684.22
  C 281.48 681.37 285.51 679.80 287.35 678.65
  Q 287.79 678.37 287.99 677.90
  Q 289.84 673.49 289.22 668.24
  Q 285.37 635.33 280.32 586.15
  Q 280.27 585.64 280.07 585.18
  L 279.48 583.85
  A 0.51 0.50 -13.5 0 1 279.92 583.14
  Z"/>
<path fill="#000000" d="
  M 279.48 583.85
  L 280.07 585.18
  Q 280.27 585.64 280.32 586.15
  Q 285.37 635.33 289.22 668.24
  Q 289.84 673.49 287.99 677.90
  Q 287.79 678.37 287.35 678.65
  C 285.51 679.80 281.48 681.37 282.84 684.22
  Q 287.90 694.87 292.99 705.51
  C 294.38 708.40 294.65 712.16 291.44 714.01
  Q 289.31 715.24 287.47 715.24
  Q 254.86 715.31 222.25 715.25
  C 219.32 715.25 216.68 715.49 214.74 713.09
  C 212.72 710.57 213.08 707.86 214.46 704.89
  Q 219.57 693.97 225.15 683.28
  Q 225.37 682.86 225.09 682.48
  Q 223.24 680.00 220.29 679.18
  Q 219.75 679.03 219.51 678.52
  Q 217.28 673.79 217.92 668.25
  Q 222.81 626.06 227.24 584.05
  A 0.82 0.81 6.1 0 0 226.52 583.16
  L 220.06 582.49
  A 0.57 0.56 -86.7 0 1 219.55 581.91
  L 219.86 569.50
  A 1.01 1.01 0.0 0 1 220.87 568.52
  L 227.08 568.52
  Q 227.95 568.51 227.87 567.65
  L 227.28 560.93
  A 1.07 1.07 0.0 0 1 228.35 559.76
  L 246.69 559.70
  A 1.44 1.44 0.0 0 0 247.15 556.89
  Q 236.41 553.26 234.79 541.50
  C 232.18 522.60 256.63 512.65 268.53 527.14
  C 274.63 534.58 273.72 546.26 266.92 552.96
  C 264.85 554.99 261.91 556.34 259.22 557.62
  A 0.84 0.84 0.0 0 0 258.93 558.90
  Q 259.52 559.65 260.75 559.67
  Q 268.12 559.80 275.50 559.58
  Q 277.43 559.52 279.54 560.84
  Q 279.97 561.11 279.91 561.62
  L 279.26 566.66
  Q 279.02 568.55 280.92 568.60
  L 287.06 568.78
  A 0.53 0.52 1.7 0 1 287.57 569.31
  L 287.38 580.95
  Q 287.35 582.75 285.55 582.84
  L 279.92 583.14
  A 0.51 0.50 -13.5 0 0 279.48 583.85
  Z
  M 263.62 539.14
  A 10.03 10.03 0.0 0 0 253.59 529.11
  A 10.03 10.03 0.0 0 0 243.56 539.14
  A 10.03 10.03 0.0 0 0 253.59 549.17
  A 10.03 10.03 0.0 0 0 263.62 539.14
  Z
  M 255.97 554.19
  A 1.79 1.79 0.0 0 0 254.25 552.42
  L 252.87 552.36
  A 1.79 1.79 0.0 0 0 251.01 554.15
  L 251.02 557.97
  A 1.79 1.79 0.0 0 0 253.46 559.63
  L 254.85 559.09
  A 1.79 1.79 0.0 0 0 256.00 557.40
  L 255.97 554.19
  Z
  M 284.34 573.58
  A 1.80 1.80 0.0 0 0 282.54 571.78
  L 224.82 571.78
  A 1.80 1.80 0.0 0 0 223.02 573.58
  L 223.02 578.04
  A 1.80 1.80 0.0 0 0 224.82 579.84
  L 282.54 579.84
  A 1.80 1.80 0.0 0 0 284.34 578.04
  L 284.34 573.58
  Z
  M 268.3862 584.5363
  A 1.69 1.69 0.0 0 0 266.6874 582.8552
  L 264.8274 582.8649
  A 1.69 1.69 0.0 0 0 263.1463 584.5638
  L 263.1738 589.8037
  A 1.69 1.69 0.0 0 0 264.8726 591.4848
  L 266.7326 591.4751
  A 1.69 1.69 0.0 0 0 268.4137 589.7762
  L 268.3862 584.5363
  Z
  M 243.94 583.15
  L 238.80 583.29
  A 0.21 0.21 0.0 0 0 238.60 583.51
  L 238.76 589.37
  A 2.47 2.30 88.4 0 0 241.13 591.77
  L 242.09 591.74
  A 2.47 2.30 88.4 0 0 244.32 589.21
  L 244.16 583.35
  A 0.21 0.21 0.0 0 0 243.94 583.15
  Z
  M 225.50 666.51
  L 240.02 666.52
  A 0.84 0.84 0.0 0 0 240.71 665.21
  Q 235.93 658.17 238.99 649.67
  C 242.78 639.12 248.02 631.69 245.32 620.48
  A 1.07 1.07 0.0 0 1 246.59 619.18
  Q 250.08 619.93 253.11 622.65
  C 262.97 631.50 269.49 642.50 267.88 656.21
  C 267.48 659.55 265.58 662.16 263.76 664.93
  A 0.87 0.86 22.8 0 0 264.30 666.25
  C 265.78 666.58 267.29 666.79 268.92 666.61
  Q 275.36 665.90 282.21 666.81
  A 0.86 0.85 6.9 0 1 282.95 667.75
  Q 282.39 672.95 280.37 678.05
  Q 279.92 679.19 281.45 679.02
  A 1.29 1.27 -64.0 0 0 282.04 678.81
  C 286.88 675.59 286.29 671.38 285.66 665.47
  Q 281.92 630.41 277.95 595.21
  Q 277.89 594.62 277.29 594.62
  L 230.00 594.55
  Q 229.44 594.55 229.37 595.11
  Q 225.11 631.38 221.30 667.70
  C 220.79 672.64 221.05 676.36 225.47 678.72
  Q 229.41 680.83 227.06 677.03
  C 225.49 674.50 223.98 670.53 224.66 667.20
  A 0.86 0.86 0.0 0 1 225.50 666.51
  Z
  M 264.88 649.12
  C 263.87 639.17 257.71 630.56 250.02 624.42
  A 0.48 0.48 0.0 0 0 249.24 624.84
  C 250.04 634.22 243.62 645.62 241.54 652.75
  Q 239.60 659.37 244.27 664.24
  Q 245.60 665.63 249.05 666.02
  Q 259.10 667.19 262.97 660.53
  Q 265.58 656.04 264.88 649.12
  Z
  M 278.67 669.72
  L 228.47 669.72
  A 0.28 0.28 0.0 0 0 228.19 670.00
  L 228.19 670.39
  A 9.47 8.62 -90.0 0 0 236.81 679.86
  L 270.33 679.86
  A 9.47 8.62 90.0 0 0 278.95 670.39
  L 278.95 670.00
  A 0.28 0.28 0.0 0 0 278.67 669.72
  Z"/>
<circle fill="#f2efe8" cx="253.59" cy="539.14" r="10.03"/>
<path fill="#f2efe8" d="
  M 255.97 554.19
  L 256.00 557.40
  A 1.79 1.79 0.0 0 1 254.85 559.09
  L 253.46 559.63
  A 1.79 1.79 0.0 0 1 251.02 557.97
  L 251.01 554.15
  A 1.79 1.79 0.0 0 1 252.87 552.36
  L 254.25 552.42
  A 1.79 1.79 0.0 0 1 255.97 554.19
  Z"/>
<rect fill="#f2efe8" x="223.02" y="571.78" width="61.32" height="8.06" rx="1.80"/>
<path fill="#000000" d="
  M 568.88 628.65
  Q 567.83 627.00 567.83 628.96
  Q 568.00 668.76 567.89 707.81
  Q 567.89 708.31 567.64 709.27
  Q 567.47 709.93 567.06 710.08
  Q 566.74 710.19 566.37 709.99
  Q 565.95 709.76 565.48 709.77
  Q 535.03 709.90 518.50 709.78
  Q 516.54 709.76 514.60 708.85
  A 1.01 0.98 -83.8 0 1 514.04 708.13
  C 512.40 700.14 508.57 692.50 506.11 684.89
  A 2.21 2.21 0.0 0 0 504.02 683.36
  L 456.83 683.25
  A 2.80 2.78 -80.1 0 0 454.19 685.12
  L 446.04 708.28
  A 2.11 2.11 0.0 0 1 444.08 709.69
  Q 421.34 710.06 398.25 709.74
  C 395.90 709.70 393.96 708.41 392.31 706.53
  Q 370.02 681.09 347.99 655.40
  A 0.73 0.73 0.0 0 0 346.89 655.40
  Q 346.38 655.99 346.38 657.25
  Q 346.23 682.95 346.29 708.23
  A 1.55 1.55 0.0 0 1 344.75 709.78
  L 317.66 709.87
  A 1.45 1.45 0.0 0 1 316.20 708.42
  L 316.12 578.90
  A 1.37 1.36 90.0 0 1 317.48 577.53
  L 345.03 577.46
  A 1.32 1.32 0.0 0 1 346.35 578.78
  L 346.16 630.25
  A 0.72 0.72 0.0 0 0 347.51 630.60
  Q 348.35 629.10 349.72 627.47
  Q 369.59 603.84 389.41 580.17
  C 390.97 578.30 393.20 577.44 395.79 577.47
  Q 408.75 577.63 421.71 577.30
  C 423.82 577.25 425.71 577.71 427.78 578.15
  A 0.58 0.58 0.0 0 1 427.99 579.19
  Q 426.09 580.46 424.43 582.40
  Q 399.83 611.04 375.46 639.50
  A 0.97 0.95 44.5 0 0 375.48 640.76
  L 419.41 690.37
  Q 420.35 691.44 420.88 690.12
  Q 442.85 635.59 463.65 584.06
  C 464.31 582.43 464.73 580.65 465.30 578.92
  A 1.27 1.26 86.6 0 1 465.94 578.19
  Q 467.34 577.51 469.25 577.51
  Q 480.75 577.49 492.26 577.49
  Q 494.20 577.49 495.09 579.80
  Q 502.70 599.66 510.83 619.32
  Q 522.91 648.55 534.60 677.93
  C 535.39 679.93 535.96 682.35 536.73 684.50
  A 0.37 0.37 0.0 0 0 537.44 684.42
  Q 537.84 681.10 537.83 677.75
  Q 537.69 628.25 537.79 578.55
  Q 537.79 577.55 538.79 577.55
  Q 552.04 577.48 565.76 577.64
  Q 568.27 577.67 569.67 579.89
  Q 593.36 617.40 617.45 654.65
  C 618.29 655.96 618.89 657.46 619.65 658.83
  A 0.65 0.65 0.0 0 0 620.86 658.51
  L 620.85 578.48
  A 0.92 0.91 -0.0 0 1 621.77 577.57
  L 810.13 577.59
  A 1.52 1.52 0.0 0 1 811.65 579.12
  L 811.45 603.06
  A 1.01 1.01 0.0 0 1 810.44 604.06
  L 766.48 603.98
  Q 765.94 603.98 765.94 604.52
  L 766.03 629.05
  A 1.26 0.97 90.0 0 0 767.00 630.31
  L 808.16 630.19
  A 1.48 1.47 0.0 0 1 809.64 631.66
  L 809.63 655.94
  A 0.79 0.78 0.0 0 1 808.84 656.72
  L 767.66 656.57
  A 1.69 1.69 0.0 0 0 765.96 658.26
  L 765.97 682.02
  A 1.43 1.42 0.0 0 0 767.40 683.44
  L 810.21 683.30
  Q 811.35 683.29 811.36 684.43
  Q 811.49 696.47 811.59 706.75
  Q 811.60 707.47 812.03 708.52
  Q 812.23 709.03 811.74 709.26
  Q 810.50 709.88 808.73 709.87
  Q 773.01 709.74 736.79 709.88
  A 0.86 0.85 89.7 0 1 735.93 709.02
  L 736.00 604.97
  A 0.92 0.91 90.0 0 0 735.09 604.05
  L 709.98 603.94
  A 0.83 0.82 -89.3 0 0 709.15 604.76
  Q 708.92 654.25 709.03 704.02
  Q 709.03 704.08 709.51 706.90
  Q 709.77 708.41 708.55 709.21
  Q 707.85 709.68 706.40 709.71
  Q 692.93 710.04 679.54 709.73
  Q 678.88 709.71 678.88 709.06
  L 678.83 604.81
  A 0.77 0.77 0.0 0 0 678.06 604.04
  L 651.54 603.96
  Q 651.03 603.96 651.03 604.46
  L 651.03 708.18
  A 1.70 1.70 0.0 0 1 649.32 709.88
  L 622.96 709.77
  A 3.71 3.71 0.0 0 1 619.86 708.07
  L 568.88 628.65
  Z
  M 465.72 655.62
  A 0.90 0.90 0.0 0 0 466.56 656.84
  L 493.81 656.89
  A 0.90 0.90 0.0 0 0 494.66 655.67
  L 481.09 619.66
  A 0.90 0.90 0.0 0 0 479.41 619.65
  L 465.72 655.62
  Z"/>
<path fill="#000000" d="
  M 843.78 660.25
  L 843.96 707.27
  A 2.49 2.49 0.0 0 1 841.48 709.77
  L 814.50 709.82
  A 1.05 0.93 18.9 0 1 813.60 708.24
  Q 813.76 708.07 813.76 707.25
  Q 813.62 642.71 813.81 578.68
  A 1.16 1.16 0.0 0 1 814.98 577.52
  Q 838.80 577.67 862.75 577.65
  Q 867.47 577.65 873.33 578.95
  C 895.76 583.95 907.32 601.65 903.14 624.83
  C 901.24 635.36 896.62 643.55 887.81 649.63
  C 885.20 651.42 880.92 652.74 877.69 654.92
  Q 877.17 655.27 877.57 655.76
  L 906.10 690.14
  Q 906.45 690.56 906.65 690.05
  Q 928.22 636.60 949.73 583.17
  C 950.20 582.02 950.51 579.53 951.52 578.00
  A 0.98 0.97 -73.4 0 1 952.34 577.55
  L 979.54 577.63
  Q 980.02 577.64 980.19 578.08
  L 1032.22 707.22
  A 1.36 1.33 2.7 0 0 1032.88 707.93
  L 1033.31 708.14
  Q 1033.82 708.40 1033.34 708.72
  C 1030.20 710.83 1027.58 709.76 1024.62 709.78
  Q 1012.79 709.88 1000.98 709.70
  Q 1000.63 709.69 1000.52 709.37
  L 992.07 684.80
  A 2.19 2.19 0.0 0 0 990.00 683.33
  L 941.24 683.28
  A 0.78 0.78 0.0 0 0 940.51 683.79
  L 931.61 708.51
  A 1.93 1.92 -80.0 0 1 929.80 709.79
  Q 907.80 709.85 885.74 709.81
  C 884.36 709.80 882.73 707.69 881.73 706.41
  Q 863.59 683.18 845.55 659.65
  Q 843.77 657.32 843.78 660.25
  Z
  M 843.83 602.67
  L 843.77 635.11
  A 1.11 1.11 0.0 0 0 844.88 636.22
  L 854.18 636.23
  A 17.93 15.51 0.1 0 0 872.14 620.75
  L 872.14 617.11
  A 17.93 15.51 0.1 0 0 854.24 601.57
  L 844.94 601.56
  A 1.11 1.11 0.0 0 0 843.83 602.67
  Z
  M 951.16 656.07
  A 0.58 0.58 0.0 0 0 951.70 656.86
  L 979.98 657.01
  A 0.58 0.58 0.0 0 0 980.53 656.22
  L 966.58 619.19
  A 0.58 0.58 0.0 0 0 965.50 619.19
  L 951.16 656.07
  Z"/>
<rect fill="#f2efe8" x="-2.62" y="-4.31" transform="translate(265.78,587.17) rotate(-0.3)" width="5.24" height="8.62" rx="1.69"/>
<path fill="#f2efe8" d="
  M 243.94 583.15
  A 0.21 0.21 0.0 0 1 244.16 583.35
  L 244.32 589.21
  A 2.47 2.30 88.4 0 1 242.09 591.74
  L 241.13 591.77
  A 2.47 2.30 88.4 0 1 238.76 589.37
  L 238.60 583.51
  A 0.21 0.21 0.0 0 1 238.80 583.29
  L 243.94 583.15
  Z"/>
<path fill="#f2efe8" d="
  M 224.66 667.20
  C 223.98 670.53 225.49 674.50 227.06 677.03
  Q 229.41 680.83 225.47 678.72
  C 221.05 676.36 220.79 672.64 221.30 667.70
  Q 225.11 631.38 229.37 595.11
  Q 229.44 594.55 230.00 594.55
  L 277.29 594.62
  Q 277.89 594.62 277.95 595.21
  Q 281.92 630.41 285.66 665.47
  C 286.29 671.38 286.88 675.59 282.04 678.81
  A 1.29 1.27 -64.0 0 1 281.45 679.02
  Q 279.92 679.19 280.37 678.05
  Q 282.39 672.95 282.95 667.75
  A 0.86 0.85 6.9 0 0 282.21 666.81
  Q 275.36 665.90 268.92 666.61
  C 267.29 666.79 265.78 666.58 264.30 666.25
  A 0.87 0.86 22.8 0 1 263.76 664.93
  C 265.58 662.16 267.48 659.55 267.88 656.21
  C 269.49 642.50 262.97 631.50 253.11 622.65
  Q 250.08 619.93 246.59 619.18
  A 1.07 1.07 0.0 0 0 245.32 620.48
  C 248.02 631.69 242.78 639.12 238.99 649.67
  Q 235.93 658.17 240.71 665.21
  A 0.84 0.84 0.0 0 1 240.02 666.52
  L 225.50 666.51
  A 0.86 0.86 0.0 0 0 224.66 667.20
  Z"/>
<path fill="#f2efe8" d="
  M 843.83 602.67
  A 1.11 1.11 0.0 0 1 844.94 601.56
  L 854.24 601.57
  A 17.93 15.51 0.1 0 1 872.14 617.11
  L 872.14 620.75
  A 17.93 15.51 0.1 0 1 854.18 636.23
  L 844.88 636.22
  A 1.11 1.11 0.0 0 1 843.77 635.11
  L 843.83 602.67
  Z"/>
<path fill="#f2efe8" d="
  M 951.16 656.07
  L 965.50 619.19
  A 0.58 0.58 0.0 0 1 966.58 619.19
  L 980.53 656.22
  A 0.58 0.58 0.0 0 1 979.98 657.01
  L 951.70 656.86
  A 0.58 0.58 0.0 0 1 951.16 656.07
  Z"/>
<path fill="#f2efe8" d="
  M 465.72 655.62
  L 479.41 619.65
  A 0.90 0.90 0.0 0 1 481.09 619.66
  L 494.66 655.67
  A 0.90 0.90 0.0 0 1 493.81 656.89
  L 466.56 656.84
  A 0.90 0.90 0.0 0 1 465.72 655.62
  Z"/>
<path fill="#f2efe8" d="
  M 250.02 624.42
  C 257.71 630.56 263.87 639.17 264.88 649.12
  Q 265.58 656.04 262.97 660.53
  Q 259.10 667.19 249.05 666.02
  Q 245.60 665.63 244.27 664.24
  Q 239.60 659.37 241.54 652.75
  C 243.62 645.62 250.04 634.22 249.24 624.84
  A 0.48 0.48 0.0 0 1 250.02 624.42
  Z"/>
<path fill="#f2efe8" d="
  M 278.67 669.72
  A 0.28 0.28 0.0 0 1 278.95 670.00
  L 278.95 670.39
  A 9.47 8.62 90.0 0 1 270.33 679.86
  L 236.81 679.86
  A 9.47 8.62 -90.0 0 1 228.19 670.39
  L 228.19 670.00
  A 0.28 0.28 0.0 0 1 228.47 669.72
  L 278.67 669.72
  Z"/>
</svg>
